STARTFONT 2.1
FONT HAN-GB2312
SIZE 20 72 72
FONTBOUNDINGBOX 10 20 0 0
STARTPROPERTIES 1
BITCOUNT 8
ENDPROPERTIES
CHARS 26
STARTCHAR  00A4
ENCODING  164
SWIDTH  1000 0
DWIDTH  11 0
BBX  10 10 0 3
BITMAP
00008010102010800000
00A0FFF0FFFFF0FFA000
60FFFFFFFFFFFFFFFF60
00E0FFC02020C0FFE000
00F0FF40000040FFFF00
00E0FF40000040FFE000
20F0FFE04040E0FFF030
40F0FFFFFFFFFFFFFF40
0040FFE0F0F0E0FF6000
00004000000000400000
ENDCHAR
STARTCHAR  00A7
ENCODING  167
SWIDTH  1000 0
DWIDTH  8 0
BBX  6 17 1 0
BITMAP
10A0F0F0C020
A0FFFFFFFFE0
F0FF60F0FFFF
FFFF80A0C0C0
C0FFFFA00000
30F0FFFFC000
20E0FFFFFF80
E0FFE0FFFFE0
FFFF30E0FFFF
F0FFA0F0FFC0
80FFFFFFE020
00C0FFFFE020
0010C0FFFFA0
E0E040FFFFF0
F0FF40F0FFF0
A0FFFFFFFFA0
10A0F0F0A010
ENDCHAR
STARTCHAR  00A8
ENCODING  168
SWIDTH  1000 0
DWIDTH  8 0
BBX  6 3 1 14
BITMAP
FFFF0000F0FF
FFFF0000F0FF
303000002030
ENDCHAR
STARTCHAR  00B0
ENCODING  176
SWIDTH  1000 0
DWIDTH  5 0
BBX  3 4 1 13
BITMAP
80F080
F030F0
F030E0
60F060
ENDCHAR
STARTCHAR  00B1
ENCODING  177
SWIDTH  1000 0
DWIDTH  11 0
BBX  10 12 0 0
BITMAP
0000000020F000000000
0000000020F000000000
0000000020F000000000
0000000020F000000000
00FFFFFFFFFFFFFFFFFF
0030303040F030303030
0000000020F000000000
0000000020F000000000
0000000020F000000000
00000000000000000000
00000000000000000000
30E0E0E0E0E0E0E0E0E0
ENDCHAR
STARTCHAR  00D7
ENCODING  215
SWIDTH  1000 0
DWIDTH  14 0
BBX  14 13 -1 1
BITMAP
0000001000000000000020200000
000060FF600000000020E0F04000
0080FFFFFF80000020E0FFFFF030
0080FFFFFFFFC030E0FFFFFFC000
000040F0FFFFFFFFFFFFFFC01000
00000030E0FFFFFFFFFFE0100000
0000000030FFFFFFFFFF60000000
00000020E0FFFFFFFFFFFF400000
000020E0FFFFFFE0FFFFFFFF6000
0020E0FFFFFFE01040F0FFFFFF60
0080FFFFFFE010000030F0FFFFA0
000060FFE0100000000020E0C000
0000004010000000000000201000
ENDCHAR
STARTCHAR  00E0
ENCODING  224
SWIDTH  1000 0
DWIDTH  10 0
BBX  8 19 0 0
BITMAP
0020808060000000
000080FFFF300000
00000080FFE01000
0000000080FFA000
0000000000000000
0060E0FFF0C06000
80FFFFFFFFFFFF60
F0FFFF6080FFFFE0
C0C0C00030FFFFFF
00000060C0FFFFFF
0060E0FFFFFFFFFF
40FFFFFFE0FFFFFF
C0FFFF6030FFFFFF
F0FFFF0030FFFFFF
FFFFF00030FFFFFF
FFFFE00040FFFFFF
F0FFFF40A0FFFFFF
A0FFFFFFFFFFFFFF
10C0FFE0A0FFFFFF
ENDCHAR
STARTCHAR  00E1
ENCODING  225
SWIDTH  1000 0
DWIDTH  10 0
BBX  8 19 0 0
BITMAP
0000000040808010
00000030F0FF6000
000010E0FF800000
0000C0FFA0000000
0000000000000000
0060E0FFF0C06000
80FFFFFFFFFFFF60
F0FFFF6080FFFFE0
C0C0C00030FFFFFF
00000060C0FFFFFF
0060E0FFFFFFFFFF
40FFFFFFE0FFFFFF
C0FFFF6030FFFFFF
F0FFFF0030FFFFFF
FFFFF00030FFFFFF
FFFFE00040FFFFFF
F0FFFF40A0FFFFFF
A0FFFFFFFFFFFFFF
10C0FFE0A0FFFFFF
ENDCHAR
STARTCHAR  00E8
ENCODING  232
SWIDTH  1000 0
DWIDTH  10 0
BBX  8 19 0 0
BITMAP
0000608060000000
000040F0FF400000
00000060FFE01000
0000000080FFA000
0000000000000000
0020A0F0F0C03000
30F0FFFFFFFFF030
C0FFFF8080FFFFC0
F0FFFF3030FFFFFF
FFFFFF3030FFFFFF
FFFFFFFFFFFFFFFF
FFFFFFFFFFFFFFFF
FFFFFF6030303030
FFFFFF3020C0C0C0
FFFFFF3030FFFFFF
F0FFFF3030FFFFF0
C0FFFF8080FFFFA0
30F0FFFFFFFFF020
0020A0F0F0A02000
ENDCHAR
STARTCHAR  00E9
ENCODING  233
SWIDTH  1000 0
DWIDTH  10 0
BBX  8 19 0 0
BITMAP
0000000040808010
00000010F0FF6000
000000C0FFA00000
000060FFC0000000
0000000000000000
0020A0F0F0A02000
30F0FFFFFFFFF020
C0FFFF8080FFFFA0
F0FFFF3030FFFFF0
FFFFFF3030FFFFFF
FFFFFFFFFFFFFFFF
FFFFFFFFFFFFFFFF
FFFFFFC0A0A0A0A0
FFFFFF3010606060
FFFFFF3030FFFFFF
F0FFFF3030FFFFF0
C0FFFF8080FFFFC0
30F0FFFFFFFFF030
0020A0F0F0C03000
ENDCHAR
STARTCHAR  00EA
ENCODING  234
SWIDTH  1000 0
DWIDTH  10 0
BBX  8 19 0 0
BITMAP
0000108060000000
0000A0FFFF600000
0040FFC0E0F02000
10E0F01040FFC000
0000000000000000
0020A0F0F0C03000
30F0FFFFFFFFF030
C0FFFF8080FFFFC0
F0FFFF3030FFFFFF
FFFFFF3030FFFFFF
FFFFFFFFFFFFFFFF
FFFFFFFFFFFFFFFF
FFFFFF6030303030
FFFFFF3020C0C0C0
FFFFFF3030FFFFFF
F0FFFF3030FFFFF0
C0FFFF8080FFFFA0
30F0FFFFFFFFF020
0020A0F0F0A02000
ENDCHAR
STARTCHAR  00EC
ENCODING  236
SWIDTH  1000 0
DWIDTH  6 0
BBX  6 19 0 0
BITMAP
608060000000
20F0FF600000
0040F0F02000
000060FFC000
000000000000
00FFFFFF3000
00FFFFFF3000
00FFFFFF3000
00FFFFFF3000
00FFFFFF3000
00FFFFFF3000
00FFFFFF3000
00FFFFFF3000
00FFFFFF3000
00FFFFFF3000
00FFFFFF3000
00FFFFFF3000
00FFFFFF3000
00FFFFFF3000
ENDCHAR
STARTCHAR  00ED
ENCODING  237
SWIDTH  1000 0
DWIDTH  6 0
BBX  6 19 0 0
BITMAP
000040808000
0020F0FF6000
00C0FF800000
80FFA0000000
000000000000
00FFFFFF3000
00FFFFFF3000
00FFFFFF3000
00FFFFFF3000
00FFFFFF3000
00FFFFFF3000
00FFFFFF3000
00FFFFFF3000
00FFFFFF3000
00FFFFFF3000
00FFFFFF3000
00FFFFFF3000
00FFFFFF3000
00FFFFFF3000
ENDCHAR
STARTCHAR  00F2
ENCODING  242
SWIDTH  1000 0
DWIDTH  10 0
BBX  8 19 0 0
BITMAP
0000608060000000
000040F0FF400000
00000060FFE01000
0000000080FFA000
0000000000000000
0020A0F0F0A02000
30F0FFFFFFFFF030
C0FFFF8080FFFFC0
F0FFFF3030FFFFF0
FFFFFF3030FFFFFF
FFFFFF3030FFFFFF
FFFFFF3030FFFFFF
FFFFFF3030FFFFFF
FFFFFF3030FFFFFF
FFFFFF3030FFFFFF
F0FFFF3030FFFFF0
C0FFFF8080FFFFC0
30F0FFFFFFFFF030
0020A0F0F0C02000
ENDCHAR
STARTCHAR  00F3
ENCODING  243
SWIDTH  1000 0
DWIDTH  10 0
BBX  8 19 0 0
BITMAP
0000000040808010
00000010F0FF6000
000000C0FFA00000
000060FFC0000000
0000000000000000
0020A0F0F0A02000
30F0FFFFFFFFF030
C0FFFF8080FFFFC0
F0FFFF3030FFFFF0
FFFFFF3030FFFFFF
FFFFFF3030FFFFFF
FFFFFF3030FFFFFF
FFFFFF3030FFFFFF
FFFFFF3030FFFFFF
FFFFFF3030FFFFFF
F0FFFF3030FFFFF0
C0FFFF8080FFFFC0
30F0FFFFFFFFF030
0020A0F0F0C02000
ENDCHAR
STARTCHAR  00F7
ENCODING  247
SWIDTH  1000 0
DWIDTH  11 0
BBX  9 9 1 3
BITMAP
00000030FF00000000
00000030FF00000000
000000002000000000
000000000000000000
FFFFFFFFFFFFFFFFFF
E0E0E0E0E0E0E0E0E0
000000002000000000
00000030FF00000000
00000030FF00000000
ENDCHAR
STARTCHAR  00F9
ENCODING  249
SWIDTH  1000 0
DWIDTH  10 0
BBX  8 19 0 0
BITMAP
0000808060000000
000040FFFF300000
00000060FFE00000
0000000080FF8000
0000000000000000
FFFFFF3030FFFFFF
FFFFFF3030FFFFFF
FFFFFF3030FFFFFF
FFFFFF3030FFFFFF
FFFFFF3030FFFFFF
FFFFFF3030FFFFFF
FFFFFF3030FFFFFF
FFFFFF3030FFFFFF
FFFFFF3030FFFFFF
FFFFFF3030FFFFFF
FFFFFF3030FFFFFF
E0FFFF8080FFFFFF
80FFFFFFFFFFFFFF
00A0F0F0A0FFFFFF
ENDCHAR
STARTCHAR  00FA
ENCODING  250
SWIDTH  1000 0
DWIDTH  10 0
BBX  8 19 0 0
BITMAP
0000000060806000
00000040FFF03000
000010F0FF400000
0000A0FF60000000
0000000000000000
FFFFFF3030FFFFFF
FFFFFF3030FFFFFF
FFFFFF3030FFFFFF
FFFFFF3030FFFFFF
FFFFFF3030FFFFFF
FFFFFF3030FFFFFF
FFFFFF3030FFFFFF
FFFFFF3030FFFFFF
FFFFFF3030FFFFFF
FFFFFF3030FFFFFF
FFFFFF3030FFFFFF
E0FFFF8080FFFFFF
80FFFFFFFFFFFFFF
00A0F0F0A0FFFFFF
ENDCHAR
STARTCHAR  00FC
ENCODING  252
SWIDTH  1000 0
DWIDTH  10 0
BBX  8 17 0 0
BITMAP
00FFFF0000F0FF00
00FFFF0000F0FF00
0030300000203000
FFFFFF3030FFFFFF
FFFFFF3030FFFFFF
FFFFFF3030FFFFFF
FFFFFF3030FFFFFF
FFFFFF3030FFFFFF
FFFFFF3030FFFFFF
FFFFFF3030FFFFFF
FFFFFF3030FFFFFF
FFFFFF3030FFFFFF
FFFFFF3030FFFFFF
FFFFFF3030FFFFFF
E0FFFF8080FFFFFF
80FFFFFFFFFFFFFF
00A0F0F0A0FFFFFF
ENDCHAR
STARTCHAR  2014
ENCODING  8212
SWIDTH  1000 0
DWIDTH  11 0
BBX  10 3 1 5
BITMAP
30303030303030303030
FFFFFFFFFFFFFFFFFFFF
FFFFFFFFFFFFFFFFFFFF
ENDCHAR
STARTCHAR  2018
ENCODING  8216
SWIDTH  1000 0
DWIDTH  4 0
BBX  4 6 0 11
BITMAP
00A06000
80F03000
FFFFFF30
FFFFFF30
FFFFFF30
FFFFFF30
ENDCHAR
STARTCHAR  2019
ENCODING  8217
SWIDTH  1000 0
DWIDTH  4 0
BBX  4 6 0 11
BITMAP
FFFFFF30
FFFFFF30
FFFFFF30
FFFFFF30
10E0C000
40C01000
ENDCHAR
STARTCHAR  201C
ENCODING  8220
SWIDTH  1000 0
DWIDTH  8 0
BBX  7 6 0 11
BITMAP
00A0800010C040
80F03000C0E010
FFFFFF60FFFFFF
FFFFFF60FFFFFF
FFFFFF60FFFFFF
FFFFFF60FFFFFF
ENDCHAR
STARTCHAR  201D
ENCODING  8221
SWIDTH  1000 0
DWIDTH  8 0
BBX  7 6 0 11
BITMAP
FFFFFF60FFFFFF
FFFFFF60FFFFFF
FFFFFF60FFFFFF
FFFFFF60FFFFFF
10E0C00030F080
40C0100080A000
ENDCHAR
STARTCHAR  2026
ENCODING  8230
SWIDTH  1000 0
DWIDTH  14 0
BBX  14 4 0 0
BITMAP
FFFFFF3000FFFFFF3000FFFFFF30
FFFFFF3000FFFFFF3000FFFFFF30
FFFFFF3000FFFFFF3000FFFFFF30
FFFFFF3000FFFFFF3000FFFFFF30
ENDCHAR
STARTCHAR  2030
ENCODING  8240
SWIDTH  1000 0
DWIDTH  18 0
BBX  17 17 0 0
BITMAP
0000000000000000C0E000000000000000
0000000000000040FF6000000000000000
60E0F080000000C0E00000000000000000
F0E0E0FF000030FF600000000000000000
FFE0E0FF0000A0F0100000000000000000
FFE0E0FF0020FF80000000000000000000
FFE0E0F000A0F010000000000000000000
A0FFFF8010F08000000000000000000000
0020200080FF2000001000000000100000
00000010F0A00060F0FF800030E0FFF060
00000080FF3000F0F0F0FF00C0FF80FFE0
000010F0C00000FFE0E0FF00E0FF00FFE0
000060FF400000FFE0E0FF00E0FF00FFE0
0000E0C0000000FFE0E0FF00E0FF00FFE0
0060FF40000000F0E0E0F000E0FF20FFC0
00E0E00000000080FFFF800060F0FFF040
40FF600000000000202000000010201000
ENDCHAR
ENDFONT
